<mxfile host="65bd71144e">
    <diagram id="Zm43ygSSUMAIpyKzuVWy" name="Page-1">
        <mxGraphModel dx="2310" dy="2475" grid="1" gridSize="10" guides="1" tooltips="1" connect="1" arrows="1" fold="1" page="1" pageScale="1" pageWidth="850" pageHeight="1100" math="0" shadow="0">
            <root>
                <mxCell id="0"/>
                <mxCell id="1" parent="0"/>
                <mxCell id="2" value="I/O Device 1" style="swimlane;" parent="1" vertex="1">
                    <mxGeometry x="220" y="150" width="200" height="200" as="geometry"/>
                </mxCell>
                <mxCell id="3" value="Data Register" style="rounded=1;whiteSpace=wrap;html=1;" parent="2" vertex="1">
                    <mxGeometry x="35" y="150" width="130" height="35" as="geometry"/>
                </mxCell>
                <mxCell id="10" value="INT" style="rounded=1;whiteSpace=wrap;html=1;" parent="2" vertex="1">
                    <mxGeometry x="110" y="110" width="55" height="27.5" as="geometry"/>
                </mxCell>
                <mxCell id="13" value="" style="endArrow=classic;html=1;rounded=0;edgeStyle=elbowEdgeStyle;elbow=vertical;exitX=0.23;exitY=1.018;exitDx=0;exitDy=0;exitPerimeter=0;" parent="1" source="70" edge="1">
                    <mxGeometry width="50" height="50" relative="1" as="geometry">
                        <mxPoint x="620" y="130" as="sourcePoint"/>
                        <mxPoint x="420" y="210" as="targetPoint"/>
                        <Array as="points">
                            <mxPoint x="510" y="210"/>
                        </Array>
                    </mxGeometry>
                </mxCell>
                <mxCell id="17" value="read_data" style="edgeLabel;html=1;align=center;verticalAlign=middle;resizable=0;points=[];" parent="13" vertex="1" connectable="0">
                    <mxGeometry x="-0.0944" relative="1" as="geometry">
                        <mxPoint x="-105" y="-10" as="offset"/>
                    </mxGeometry>
                </mxCell>
                <mxCell id="61" value="read_data1" style="edgeLabel;html=1;align=center;verticalAlign=middle;resizable=0;points=[];fontSize=11;rotation=-90;" parent="13" vertex="1" connectable="0">
                    <mxGeometry x="-0.6827" y="-2" relative="1" as="geometry">
                        <mxPoint x="-7" y="-3" as="offset"/>
                    </mxGeometry>
                </mxCell>
                <mxCell id="14" value="" style="endArrow=classic;html=1;rounded=0;edgeStyle=elbowEdgeStyle;elbow=vertical;exitX=0.394;exitY=1.018;exitDx=0;exitDy=0;exitPerimeter=0;" parent="1" source="70" edge="1">
                    <mxGeometry width="50" height="50" relative="1" as="geometry">
                        <mxPoint x="633" y="140" as="sourcePoint"/>
                        <mxPoint x="420" y="230" as="targetPoint"/>
                        <Array as="points">
                            <mxPoint x="530" y="230"/>
                        </Array>
                    </mxGeometry>
                </mxCell>
                <mxCell id="18" value="write_data1" style="edgeLabel;html=1;align=center;verticalAlign=middle;resizable=0;points=[];rotation=-90;" parent="14" vertex="1" connectable="0">
                    <mxGeometry x="-0.0944" y="-1" relative="1" as="geometry">
                        <mxPoint x="28" y="-67" as="offset"/>
                    </mxGeometry>
                </mxCell>
                <mxCell id="63" value="write_data" style="edgeLabel;html=1;align=center;verticalAlign=middle;resizable=0;points=[];fontSize=11;" parent="14" vertex="1" connectable="0">
                    <mxGeometry x="0.669" y="-3" relative="1" as="geometry">
                        <mxPoint y="-6" as="offset"/>
                    </mxGeometry>
                </mxCell>
                <mxCell id="19" value="" style="endArrow=classic;html=1;exitX=1.001;exitY=0.393;exitDx=0;exitDy=0;exitPerimeter=0;edgeStyle=orthogonalEdgeStyle;rounded=0;" parent="1" source="10" target="88" edge="1">
                    <mxGeometry width="50" height="50" relative="1" as="geometry">
                        <mxPoint x="480" y="280" as="sourcePoint"/>
                        <mxPoint x="860" y="110" as="targetPoint"/>
                    </mxGeometry>
                </mxCell>
                <mxCell id="20" value="int_request" style="edgeLabel;html=1;align=center;verticalAlign=middle;resizable=0;points=[];" parent="19" vertex="1" connectable="0">
                    <mxGeometry x="0.1692" y="1" relative="1" as="geometry">
                        <mxPoint x="-301" y="-10" as="offset"/>
                    </mxGeometry>
                </mxCell>
                <mxCell id="21" value="" style="shape=flexArrow;endArrow=classic;startArrow=classic;html=1;edgeStyle=orthogonalEdgeStyle;exitX=0.999;exitY=0.598;exitDx=0;exitDy=0;exitPerimeter=0;" parent="1" source="3" edge="1">
                    <mxGeometry width="100" height="100" relative="1" as="geometry">
                        <mxPoint x="410" y="320" as="sourcePoint"/>
                        <mxPoint x="600" y="560" as="targetPoint"/>
                        <Array as="points">
                            <mxPoint x="600" y="321"/>
                            <mxPoint x="600" y="560"/>
                        </Array>
                    </mxGeometry>
                </mxCell>
                <mxCell id="68" value="Data" style="edgeLabel;html=1;align=center;verticalAlign=middle;resizable=0;points=[];" vertex="1" connectable="0" parent="21">
                    <mxGeometry x="-0.6988" relative="1" as="geometry">
                        <mxPoint x="15" y="-15" as="offset"/>
                    </mxGeometry>
                </mxCell>
                <mxCell id="34" value="I/O Device 2" style="swimlane;" parent="1" vertex="1">
                    <mxGeometry x="220" y="400" width="200" height="200" as="geometry"/>
                </mxCell>
                <mxCell id="35" value="Data Register" style="rounded=1;whiteSpace=wrap;html=1;" parent="34" vertex="1">
                    <mxGeometry x="35" y="150" width="130" height="35" as="geometry"/>
                </mxCell>
                <mxCell id="36" value="INT" style="rounded=1;whiteSpace=wrap;html=1;" parent="34" vertex="1">
                    <mxGeometry x="110" y="110" width="55" height="27.5" as="geometry"/>
                </mxCell>
                <mxCell id="37" value="" style="endArrow=classic;html=1;edgeStyle=elbowEdgeStyle;elbow=vertical;rounded=0;exitX=0.533;exitY=0.981;exitDx=0;exitDy=0;exitPerimeter=0;" parent="1" edge="1" source="70">
                    <mxGeometry width="50" height="50" relative="1" as="geometry">
                        <mxPoint x="710" y="190" as="sourcePoint"/>
                        <mxPoint x="420" y="440" as="targetPoint"/>
                        <Array as="points">
                            <mxPoint x="585" y="440"/>
                        </Array>
                    </mxGeometry>
                </mxCell>
                <mxCell id="38" value="read_int" style="edgeLabel;html=1;align=center;verticalAlign=middle;resizable=0;points=[];" parent="37" vertex="1" connectable="0">
                    <mxGeometry x="0.1964" y="-1" relative="1" as="geometry">
                        <mxPoint x="-147" y="-9" as="offset"/>
                    </mxGeometry>
                </mxCell>
                <mxCell id="85" value="read_int2" style="edgeLabel;html=1;align=center;verticalAlign=middle;resizable=0;points=[];rotation=-90;" vertex="1" connectable="0" parent="37">
                    <mxGeometry x="-0.858" y="-1" relative="1" as="geometry">
                        <mxPoint x="-10" as="offset"/>
                    </mxGeometry>
                </mxCell>
                <mxCell id="39" value="" style="endArrow=classic;html=1;entryX=1;entryY=0.25;entryDx=0;entryDy=0;edgeStyle=elbowEdgeStyle;elbow=vertical;rounded=0;exitX=0.659;exitY=1.001;exitDx=0;exitDy=0;exitPerimeter=0;" parent="1" edge="1" source="70">
                    <mxGeometry width="50" height="50" relative="1" as="geometry">
                        <mxPoint x="730" y="210" as="sourcePoint"/>
                        <mxPoint x="420" y="460" as="targetPoint"/>
                        <Array as="points">
                            <mxPoint x="575" y="460"/>
                        </Array>
                    </mxGeometry>
                </mxCell>
                <mxCell id="86" value="read_data2" style="edgeLabel;html=1;align=center;verticalAlign=middle;resizable=0;points=[];rotation=-90;" vertex="1" connectable="0" parent="39">
                    <mxGeometry x="-0.8866" y="-1" relative="1" as="geometry">
                        <mxPoint x="-9" y="11" as="offset"/>
                    </mxGeometry>
                </mxCell>
                <mxCell id="103" value="read_data" style="edgeLabel;html=1;align=center;verticalAlign=middle;resizable=0;points=[];" vertex="1" connectable="0" parent="39">
                    <mxGeometry x="0.7291" relative="1" as="geometry">
                        <mxPoint y="-10" as="offset"/>
                    </mxGeometry>
                </mxCell>
                <mxCell id="41" value="" style="endArrow=classic;html=1;entryX=1;entryY=0.25;entryDx=0;entryDy=0;edgeStyle=elbowEdgeStyle;elbow=vertical;rounded=0;exitX=0.785;exitY=1.019;exitDx=0;exitDy=0;exitPerimeter=0;" parent="1" edge="1" source="70">
                    <mxGeometry width="50" height="50" relative="1" as="geometry">
                        <mxPoint x="750" y="230" as="sourcePoint"/>
                        <mxPoint x="420" y="480" as="targetPoint"/>
                        <Array as="points">
                            <mxPoint x="590" y="480"/>
                        </Array>
                    </mxGeometry>
                </mxCell>
                <mxCell id="42" value="write_data" style="edgeLabel;html=1;align=center;verticalAlign=middle;resizable=0;points=[];" parent="41" vertex="1" connectable="0">
                    <mxGeometry x="-0.0944" y="-1" relative="1" as="geometry">
                        <mxPoint x="-205" y="57" as="offset"/>
                    </mxGeometry>
                </mxCell>
                <mxCell id="87" value="write_data2" style="edgeLabel;html=1;align=center;verticalAlign=middle;resizable=0;points=[];rotation=-90;" vertex="1" connectable="0" parent="41">
                    <mxGeometry x="-0.8729" relative="1" as="geometry">
                        <mxPoint x="-8" y="4" as="offset"/>
                    </mxGeometry>
                </mxCell>
                <mxCell id="43" value="" style="endArrow=classic;html=1;exitX=1;exitY=0.5;exitDx=0;exitDy=0;edgeStyle=orthogonalEdgeStyle;rounded=0;" parent="1" source="36" edge="1">
                    <mxGeometry width="50" height="50" relative="1" as="geometry">
                        <mxPoint x="480" y="550" as="sourcePoint"/>
                        <mxPoint x="880" y="270" as="targetPoint"/>
                        <Array as="points">
                            <mxPoint x="880" y="524"/>
                            <mxPoint x="880" y="270"/>
                        </Array>
                    </mxGeometry>
                </mxCell>
                <mxCell id="44" value="int_request" style="edgeLabel;html=1;align=center;verticalAlign=middle;resizable=0;points=[];" parent="43" vertex="1" connectable="0">
                    <mxGeometry x="0.1692" y="1" relative="1" as="geometry">
                        <mxPoint x="-321" y="-13" as="offset"/>
                    </mxGeometry>
                </mxCell>
                <mxCell id="55" value="&lt;b&gt;int_line&lt;/b&gt;" style="edgeLabel;html=1;align=center;verticalAlign=middle;resizable=0;points=[];fontSize=17;" parent="43" vertex="1" connectable="0">
                    <mxGeometry x="0.4885" y="5" relative="1" as="geometry">
                        <mxPoint x="45" y="-32" as="offset"/>
                    </mxGeometry>
                </mxCell>
                <mxCell id="45" value="" style="shape=flexArrow;endArrow=classic;startArrow=classic;html=1;edgeStyle=orthogonalEdgeStyle;entryX=0.75;entryY=1;entryDx=0;entryDy=0;elbow=vertical;exitX=1;exitY=0.5;exitDx=0;exitDy=0;" parent="1" source="35" edge="1" target="73">
                    <mxGeometry width="100" height="100" relative="1" as="geometry">
                        <mxPoint x="440" y="550" as="sourcePoint"/>
                        <mxPoint x="870" y="568" as="targetPoint"/>
                    </mxGeometry>
                </mxCell>
                <mxCell id="52" value="&lt;font style=&quot;font-size: 17px;&quot;&gt;&lt;b&gt;Data_bus&lt;/b&gt;&lt;/font&gt;" style="edgeLabel;html=1;align=center;verticalAlign=middle;resizable=0;points=[];" parent="45" vertex="1" connectable="0">
                    <mxGeometry x="0.5922" relative="1" as="geometry">
                        <mxPoint x="-95" y="214" as="offset"/>
                    </mxGeometry>
                </mxCell>
                <mxCell id="46" value="&lt;span style=&quot;font-size: 23px;&quot;&gt;I/O Device N&lt;/span&gt;" style="text;html=1;strokeColor=none;fillColor=none;align=center;verticalAlign=middle;whiteSpace=wrap;rounded=0;" parent="1" vertex="1">
                    <mxGeometry x="240" y="670" width="145" height="30" as="geometry"/>
                </mxCell>
                <mxCell id="47" value="CPU" style="swimlane;" parent="1" vertex="1">
                    <mxGeometry x="830" y="-50" width="300" height="180" as="geometry"/>
                </mxCell>
                <mxCell id="50" value="Data Path" style="swimlane;" parent="47" vertex="1">
                    <mxGeometry x="135" y="30" width="150" height="140" as="geometry"/>
                </mxCell>
                <mxCell id="72" value="BR" style="rounded=1;whiteSpace=wrap;html=1;" vertex="1" parent="50">
                    <mxGeometry x="10" y="30" width="50" height="20" as="geometry"/>
                </mxCell>
                <mxCell id="73" value="AC MUX" style="shape=trapezoid;perimeter=trapezoidPerimeter;whiteSpace=wrap;html=1;fixedSize=1;size=10;" vertex="1" parent="50">
                    <mxGeometry x="45" y="80" width="90" height="25" as="geometry"/>
                </mxCell>
                <mxCell id="74" value="AC" style="rounded=1;whiteSpace=wrap;html=1;" vertex="1" parent="50">
                    <mxGeometry x="85" y="30" width="50" height="20" as="geometry"/>
                </mxCell>
                <mxCell id="75" value="" style="shape=flexArrow;endArrow=classic;html=1;rounded=0;elbow=vertical;entryX=0.553;entryY=1.074;entryDx=0;entryDy=0;entryPerimeter=0;exitX=0.751;exitY=0.022;exitDx=0;exitDy=0;exitPerimeter=0;" edge="1" parent="50" source="73" target="74">
                    <mxGeometry width="50" height="50" relative="1" as="geometry">
                        <mxPoint x="100" y="80" as="sourcePoint"/>
                        <mxPoint x="130" y="70" as="targetPoint"/>
                    </mxGeometry>
                </mxCell>
                <mxCell id="51" value="Control Unit" style="swimlane;" parent="47" vertex="1">
                    <mxGeometry x="20" y="80" width="100" height="80" as="geometry">
                        <mxRectangle x="60" y="50" width="110" height="30" as="alternateBounds"/>
                    </mxGeometry>
                </mxCell>
                <mxCell id="88" value="IRQ" style="rounded=1;whiteSpace=wrap;html=1;" vertex="1" parent="51">
                    <mxGeometry x="10" y="55" width="40" height="20" as="geometry"/>
                </mxCell>
                <mxCell id="53" value="" style="endArrow=none;dashed=1;html=1;fontSize=17;edgeStyle=orthogonalEdgeStyle;" parent="1" edge="1">
                    <mxGeometry width="50" height="50" relative="1" as="geometry">
                        <mxPoint x="390" y="710" as="sourcePoint"/>
                        <mxPoint x="880" y="520" as="targetPoint"/>
                        <Array as="points">
                            <mxPoint x="880" y="710"/>
                            <mxPoint x="880" y="520"/>
                        </Array>
                    </mxGeometry>
                </mxCell>
                <mxCell id="56" value="" style="shape=flexArrow;endArrow=classic;html=1;fontSize=17;edgeStyle=orthogonalEdgeStyle;dashed=1;" parent="1" edge="1">
                    <mxGeometry width="50" height="50" relative="1" as="geometry">
                        <mxPoint x="390" y="690" as="sourcePoint"/>
                        <mxPoint x="600" y="570" as="targetPoint"/>
                        <Array as="points">
                            <mxPoint x="600" y="690"/>
                            <mxPoint x="600" y="570"/>
                        </Array>
                    </mxGeometry>
                </mxCell>
                <mxCell id="57" value="" style="endArrow=none;html=1;rounded=0;fontSize=17;startArrow=classic;startFill=1;endFill=0;edgeStyle=orthogonalEdgeStyle;entryX=0.095;entryY=1.081;entryDx=0;entryDy=0;entryPerimeter=0;" parent="1" target="70" edge="1">
                    <mxGeometry width="50" height="50" relative="1" as="geometry">
                        <mxPoint x="420" y="190" as="sourcePoint"/>
                        <mxPoint x="790" y="270" as="targetPoint"/>
                    </mxGeometry>
                </mxCell>
                <mxCell id="59" value="&lt;span style=&quot;font-size: 11px;&quot;&gt;read_int&lt;/span&gt;" style="edgeLabel;html=1;align=center;verticalAlign=middle;resizable=0;points=[];fontSize=17;" parent="57" vertex="1" connectable="0">
                    <mxGeometry x="-0.7218" y="2" relative="1" as="geometry">
                        <mxPoint x="18" y="-12" as="offset"/>
                    </mxGeometry>
                </mxCell>
                <mxCell id="60" value="read_int1" style="edgeLabel;html=1;align=center;verticalAlign=middle;resizable=0;points=[];fontSize=11;rotation=270;" parent="57" vertex="1" connectable="0">
                    <mxGeometry x="0.6606" y="2" relative="1" as="geometry">
                        <mxPoint x="-8" y="-5" as="offset"/>
                    </mxGeometry>
                </mxCell>
                <mxCell id="67" value="I/O Controller" style="swimlane;" vertex="1" parent="1">
                    <mxGeometry x="540" y="-50" width="250" height="180" as="geometry">
                        <mxRectangle x="60" y="50" width="110" height="30" as="alternateBounds"/>
                    </mxGeometry>
                </mxCell>
                <mxCell id="70" value="DEMUX" style="shape=trapezoid;perimeter=trapezoidPerimeter;whiteSpace=wrap;html=1;fixedSize=1;size=10;" vertex="1" parent="67">
                    <mxGeometry x="40" y="140" width="160" height="30" as="geometry"/>
                </mxCell>
                <mxCell id="83" value="" style="endArrow=classic;html=1;rounded=0;elbow=vertical;edgeStyle=orthogonalEdgeStyle;entryX=0.686;entryY=-0.015;entryDx=0;entryDy=0;entryPerimeter=0;" edge="1" parent="67" target="70">
                    <mxGeometry width="50" height="50" relative="1" as="geometry">
                        <mxPoint x="310" y="130" as="sourcePoint"/>
                        <mxPoint x="125.00000000000011" y="140" as="targetPoint"/>
                        <Array as="points">
                            <mxPoint x="150" y="130"/>
                            <mxPoint x="150" y="140"/>
                        </Array>
                    </mxGeometry>
                </mxCell>
                <mxCell id="69" value="Data" style="edgeLabel;html=1;align=center;verticalAlign=middle;resizable=0;points=[];" vertex="1" connectable="0" parent="1">
                    <mxGeometry x="480.00087704816303" y="549.995175816912" as="geometry"/>
                </mxCell>
                <mxCell id="71" value="" style="shape=flexArrow;endArrow=classic;html=1;rounded=0;elbow=vertical;entryX=0;entryY=0.5;entryDx=0;entryDy=0;edgeStyle=orthogonalEdgeStyle;exitX=0;exitY=0.5;exitDx=0;exitDy=0;" edge="1" parent="1" source="72" target="70">
                    <mxGeometry width="50" height="50" relative="1" as="geometry">
                        <mxPoint x="980" y="30" as="sourcePoint"/>
                        <mxPoint x="770" y="120" as="targetPoint"/>
                        <Array as="points">
                            <mxPoint x="560" y="20"/>
                            <mxPoint x="560" y="105"/>
                        </Array>
                    </mxGeometry>
                </mxCell>
                <mxCell id="84" value="Out_port" style="edgeLabel;html=1;align=center;verticalAlign=middle;resizable=0;points=[];" vertex="1" connectable="0" parent="71">
                    <mxGeometry x="-0.8499" y="2" relative="1" as="geometry">
                        <mxPoint x="-226" y="-22" as="offset"/>
                    </mxGeometry>
                </mxCell>
                <mxCell id="76" value="" style="shape=flexArrow;endArrow=classic;html=1;rounded=0;elbow=vertical;entryX=0.303;entryY=1.064;entryDx=0;entryDy=0;entryPerimeter=0;dashed=1;" edge="1" parent="1" target="73">
                    <mxGeometry width="50" height="50" relative="1" as="geometry">
                        <mxPoint x="1037" y="110" as="sourcePoint"/>
                        <mxPoint x="1060" y="70" as="targetPoint"/>
                    </mxGeometry>
                </mxCell>
                <mxCell id="81" value="" style="endArrow=classic;html=1;rounded=0;elbow=vertical;edgeStyle=orthogonalEdgeStyle;entryX=0.292;entryY=0;entryDx=0;entryDy=0;entryPerimeter=0;" edge="1" parent="1" target="70">
                    <mxGeometry width="50" height="50" relative="1" as="geometry">
                        <mxPoint x="850" y="60" as="sourcePoint"/>
                        <mxPoint x="619.3574101091867" y="60" as="targetPoint"/>
                    </mxGeometry>
                </mxCell>
                <mxCell id="82" value="" style="endArrow=classic;html=1;rounded=0;elbow=vertical;edgeStyle=orthogonalEdgeStyle;entryX=0.5;entryY=0;entryDx=0;entryDy=0;exitX=0;exitY=0.5;exitDx=0;exitDy=0;" edge="1" parent="1" source="51" target="70">
                    <mxGeometry width="50" height="50" relative="1" as="geometry">
                        <mxPoint x="830" y="70" as="sourcePoint"/>
                        <mxPoint x="630.04" y="100" as="targetPoint"/>
                    </mxGeometry>
                </mxCell>
                <mxCell id="95" value="" style="endArrow=classic;html=1;rounded=0;elbow=vertical;exitX=0.927;exitY=1.017;exitDx=0;exitDy=0;exitPerimeter=0;dashed=1;edgeStyle=orthogonalEdgeStyle;" edge="1" parent="1" source="70">
                    <mxGeometry width="50" height="50" relative="1" as="geometry">
                        <mxPoint x="650" y="200" as="sourcePoint"/>
                        <mxPoint x="390" y="670" as="targetPoint"/>
                        <Array as="points">
                            <mxPoint x="728" y="670"/>
                            <mxPoint x="390" y="670"/>
                        </Array>
                    </mxGeometry>
                </mxCell>
                <mxCell id="96" value="read/write_data_int N" style="edgeLabel;html=1;align=center;verticalAlign=middle;resizable=0;points=[];rotation=-90;" vertex="1" connectable="0" parent="95">
                    <mxGeometry x="-0.8204" relative="1" as="geometry">
                        <mxPoint x="-8" y="-11" as="offset"/>
                    </mxGeometry>
                </mxCell>
            </root>
        </mxGraphModel>
    </diagram>
</mxfile>